<svg width="167" height="35" viewBox="0 0 167 35" fill="none" xmlns="http://www.w3.org/2000/svg">
<path fill-rule="evenodd" clip-rule="evenodd" d="M21.875 2.91669C22.387 2.9167 22.8899 3.05147 23.3333 3.30746C23.7767 3.56346 24.1449 3.93164 24.4008 4.37502H26.25C27.0236 4.37502 27.7654 4.68231 28.3124 5.22929C28.8594 5.77627 29.1667 6.51814 29.1667 7.29169V24.7917C29.1667 26.7256 28.3984 28.5802 27.031 29.9477C25.6635 31.3151 23.8089 32.0834 21.875 32.0834H8.75C7.97645 32.0834 7.23459 31.7761 6.68761 31.2291C6.14063 30.6821 5.83334 29.9402 5.83334 29.1667V7.29169C5.83334 6.51814 6.14063 5.77627 6.68761 5.22929C7.23459 4.68231 7.97645 4.37502 8.75 4.37502H10.5992C10.8552 3.93164 11.2233 3.56346 11.6667 3.30746C12.1101 3.05147 12.613 2.9167 13.125 2.91669H21.875ZM21.6183 13.6777L15.4321 19.8654L13.3685 17.8019C13.0935 17.5362 12.7251 17.3893 12.3428 17.3926C11.9604 17.3959 11.5946 17.5493 11.3242 17.8197C11.0538 18.09 10.9005 18.4558 10.8971 18.8382C10.8938 19.2206 11.0408 19.5889 11.3065 19.864L14.296 22.855C14.445 23.0041 14.6219 23.1223 14.8166 23.203C15.0112 23.2836 15.2199 23.3251 15.4306 23.3251C15.6414 23.3251 15.85 23.2836 16.0447 23.203C16.2394 23.1223 16.4162 23.0041 16.5652 22.855L23.6819 15.7398C23.8173 15.6043 23.9247 15.4435 23.9979 15.2665C24.0711 15.0895 24.1088 14.8998 24.1087 14.7083C24.1087 14.5167 24.0709 14.327 23.9975 14.1501C23.9241 13.9732 23.8166 13.8124 23.6812 13.677C23.5457 13.5416 23.3848 13.4342 23.2078 13.361C23.0308 13.2877 22.8411 13.2501 22.6496 13.2501C22.458 13.2502 22.2684 13.288 22.0914 13.3614C21.9145 13.4347 21.7537 13.5422 21.6183 13.6777ZM21.1458 5.83335H13.8542C13.6835 5.8333 13.5182 5.8931 13.3871 6.00236C13.256 6.11161 13.1674 6.2634 13.1367 6.43127L13.125 6.56252V8.02085C13.1249 8.19152 13.1848 8.35679 13.294 8.4879C13.4033 8.619 13.555 8.70763 13.7229 8.73835L13.8542 8.75002H21.1458C21.3165 8.75008 21.4818 8.69027 21.6129 8.58101C21.744 8.47176 21.8326 8.31998 21.8633 8.1521L21.875 8.02085V6.56252C21.8751 6.39186 21.8153 6.22658 21.706 6.09548C21.5967 5.96437 21.445 5.87574 21.2771 5.84502L21.1458 5.83335Z" fill="#232323"/>
<path d="M56.2038 15.2692C56.1446 14.6181 55.8813 14.1121 55.4137 13.7511C54.9521 13.3841 54.2921 13.2006 53.4339 13.2006C52.8658 13.2006 52.3923 13.2746 52.0135 13.4226C51.6347 13.5705 51.3506 13.7747 51.1612 14.0352C50.9718 14.2897 50.8742 14.5826 50.8683 14.9141C50.8564 15.1863 50.9097 15.426 51.0281 15.6332C51.1523 15.8403 51.3299 16.0238 51.5607 16.1836C51.7975 16.3375 52.0816 16.4736 52.413 16.592C52.7444 16.7103 53.1173 16.8139 53.5316 16.9027L55.0941 17.2578C55.9937 17.4531 56.7868 17.7135 57.4734 18.0391C58.1658 18.3646 58.7459 18.7522 59.2134 19.2021C59.6869 19.6519 60.045 20.1697 60.2876 20.7557C60.5303 21.3416 60.6546 21.9986 60.6605 22.7266C60.6546 23.8748 60.3646 24.8602 59.7905 25.6829C59.2164 26.5056 58.3907 27.1359 57.3136 27.5739C56.2423 28.0118 54.9491 28.2308 53.4339 28.2308C51.9129 28.2308 50.5871 28.003 49.4567 27.5472C48.3262 27.0915 47.4473 26.399 46.82 25.4698C46.1926 24.5406 45.87 23.3658 45.8523 21.9453H50.0604C50.0959 22.5312 50.2527 23.0195 50.5309 23.4102C50.8091 23.8008 51.1908 24.0967 51.6761 24.2979C52.1674 24.4992 52.7356 24.5998 53.3807 24.5998C53.9725 24.5998 54.4756 24.5199 54.8899 24.3601C55.3101 24.2003 55.6327 23.9783 55.8576 23.6942C56.0825 23.4102 56.1979 23.0846 56.2038 22.7177C56.1979 22.3744 56.0914 22.0814 55.8842 21.8388C55.6771 21.5902 55.3575 21.3771 54.9254 21.1996C54.4993 21.0161 53.9548 20.8474 53.2919 20.6935L51.392 20.2496C49.8177 19.8886 48.5778 19.3056 47.6722 18.5007C46.7667 17.6899 46.3169 16.5949 46.3228 15.2159C46.3169 14.0914 46.6187 13.1059 47.2283 12.2596C47.8379 11.4132 48.6813 10.7533 49.7585 10.2798C50.8357 9.80634 52.0638 9.5696 53.4428 9.5696C54.8514 9.5696 56.0736 9.8093 57.1094 10.2887C58.151 10.7622 58.9589 11.428 59.533 12.2862C60.1071 13.1444 60.4001 14.1387 60.4119 15.2692H56.2038ZM69.2454 28.2575C67.8131 28.2575 66.582 27.9645 65.5522 27.3786C64.5283 26.7867 63.7382 25.964 63.1818 24.9105C62.6314 23.8511 62.3562 22.623 62.3562 21.2262C62.3562 19.8235 62.6314 18.5954 63.1818 17.5419C63.7382 16.4825 64.5283 15.6598 65.5522 15.0739C66.582 14.482 67.8131 14.1861 69.2454 14.1861C70.6777 14.1861 71.9058 14.482 72.9297 15.0739C73.9595 15.6598 74.7496 16.4825 75.3001 17.5419C75.8564 18.5954 76.1346 19.8235 76.1346 21.2262C76.1346 22.623 75.8564 23.8511 75.3001 24.9105C74.7496 25.964 73.9595 26.7867 72.9297 27.3786C71.9058 27.9645 70.6777 28.2575 69.2454 28.2575ZM69.272 24.9815C69.7929 24.9815 70.2338 24.8217 70.5948 24.5021C70.9558 24.1825 71.2311 23.7386 71.4205 23.1705C71.6158 22.6023 71.7134 21.9453 71.7134 21.1996C71.7134 20.442 71.6158 19.7791 71.4205 19.2109C71.2311 18.6428 70.9558 18.1989 70.5948 17.8793C70.2338 17.5597 69.7929 17.3999 69.272 17.3999C68.7334 17.3999 68.2777 17.5597 67.9048 17.8793C67.5379 18.1989 67.2567 18.6428 67.0614 19.2109C66.872 19.7791 66.7773 20.442 66.7773 21.1996C66.7773 21.9453 66.872 22.6023 67.0614 23.1705C67.2567 23.7386 67.5379 24.1825 67.9048 24.5021C68.2777 24.8217 68.7334 24.9815 69.272 24.9815ZM82.2026 28.2308C81.3326 28.2308 80.5602 28.0858 79.8855 27.7958C79.2167 27.4999 78.687 27.056 78.2963 26.4641C77.9116 25.8664 77.7193 25.1177 77.7193 24.218C77.7193 23.4605 77.8525 22.8213 78.1188 22.3004C78.3851 21.7796 78.7521 21.3564 79.2196 21.0309C79.6872 20.7054 80.2258 20.4598 80.8354 20.294C81.445 20.1224 82.0961 20.007 82.7885 19.9478C83.5639 19.8768 84.1883 19.8028 84.6618 19.7259C85.1352 19.643 85.4785 19.5276 85.6916 19.3796C85.9106 19.2257 86.0201 19.0097 86.0201 18.7315V18.6871C86.0201 18.2314 85.8632 17.8793 85.5495 17.6307C85.2359 17.3821 84.8127 17.2578 84.28 17.2578C83.7059 17.2578 83.2443 17.3821 82.8951 17.6307C82.5459 17.8793 82.3239 18.2225 82.2292 18.6605L78.2253 18.5185C78.3437 17.6899 78.6485 16.95 79.1397 16.299C79.6369 15.642 80.3175 15.1271 81.1816 14.7543C82.0517 14.3755 83.0963 14.1861 84.3155 14.1861C85.1855 14.1861 85.9875 14.2897 86.7214 14.4968C87.4553 14.698 88.0945 14.994 88.639 15.3846C89.1835 15.7693 89.6038 16.2428 89.8997 16.805C90.2015 17.3673 90.3525 18.0095 90.3525 18.7315V28H86.2686V26.1001H86.1621C85.9194 26.5618 85.6087 26.9524 85.2299 27.272C84.8571 27.5916 84.4161 27.8313 83.9071 27.9911C83.4041 28.1509 82.8359 28.2308 82.2026 28.2308ZM83.5431 25.3899C84.0107 25.3899 84.4309 25.2952 84.8038 25.1058C85.1826 24.9164 85.4844 24.656 85.7093 24.3246C85.9342 23.9872 86.0467 23.5966 86.0467 23.1527V21.8565C85.9224 21.9216 85.7715 21.9808 85.5939 22.0341C85.4223 22.0874 85.2329 22.1377 85.0257 22.185C84.8186 22.2324 84.6055 22.2738 84.3865 22.3093C84.1676 22.3448 83.9574 22.3774 83.7562 22.407C83.3478 22.4721 82.9986 22.5727 82.7086 22.7088C82.4245 22.8449 82.2056 23.0225 82.0517 23.2415C81.9037 23.4545 81.8297 23.709 81.8297 24.005C81.8297 24.4548 81.9895 24.7981 82.3091 25.0348C82.6346 25.2715 83.046 25.3899 83.5431 25.3899ZM93.0069 28V14.3636H97.2239V16.8494H97.3659C97.6145 15.9498 98.0199 15.281 98.5822 14.843C99.1445 14.3991 99.7985 14.1772 100.544 14.1772C100.745 14.1772 100.953 14.192 101.166 14.2216C101.379 14.2453 101.577 14.2837 101.76 14.337V18.1101C101.553 18.0391 101.281 17.9828 100.944 17.9414C100.612 17.9 100.316 17.8793 100.056 17.8793C99.541 17.8793 99.0764 17.9947 98.6621 18.2255C98.2537 18.4504 97.9312 18.767 97.6944 19.1754C97.4636 19.5779 97.3482 20.0514 97.3482 20.5959V28H93.0069ZM108.306 13.3871V9.81818H123.673V13.3871H118.16V28H113.828V13.3871H108.306ZM127.808 28.2308C126.938 28.2308 126.166 28.0858 125.491 27.7958C124.822 27.4999 124.292 27.056 123.902 26.4641C123.517 25.8664 123.325 25.1177 123.325 24.218C123.325 23.4605 123.458 22.8213 123.724 22.3004C123.991 21.7796 124.358 21.3564 124.825 21.0309C125.293 20.7054 125.831 20.4598 126.441 20.294C127.05 20.1224 127.702 20.007 128.394 19.9478C129.169 19.8768 129.794 19.8028 130.267 19.7259C130.741 19.643 131.084 19.5276 131.297 19.3796C131.516 19.2257 131.626 19.0097 131.626 18.7315V18.6871C131.626 18.2314 131.469 17.8793 131.155 17.6307C130.841 17.3821 130.418 17.2578 129.885 17.2578C129.311 17.2578 128.85 17.3821 128.501 17.6307C128.151 17.8793 127.929 18.2225 127.835 18.6605L123.831 18.5185C123.949 17.6899 124.254 16.95 124.745 16.299C125.242 15.642 125.923 15.1271 126.787 14.7543C127.657 14.3755 128.702 14.1861 129.921 14.1861C130.791 14.1861 131.593 14.2897 132.327 14.4968C133.061 14.698 133.7 14.994 134.244 15.3846C134.789 15.7693 135.209 16.2428 135.505 16.805C135.807 17.3673 135.958 18.0095 135.958 18.7315V28H131.874V26.1001H131.768C131.525 26.5618 131.214 26.9524 130.835 27.272C130.463 27.5916 130.022 27.8313 129.513 27.9911C129.01 28.1509 128.441 28.2308 127.808 28.2308ZM129.149 25.3899C129.616 25.3899 130.036 25.2952 130.409 25.1058C130.788 24.9164 131.09 24.656 131.315 24.3246C131.54 23.9872 131.652 23.5966 131.652 23.1527V21.8565C131.528 21.9216 131.377 21.9808 131.199 22.0341C131.028 22.0874 130.838 22.1377 130.631 22.185C130.424 22.2324 130.211 22.2738 129.992 22.3093C129.773 22.3448 129.563 22.3774 129.362 22.407C128.953 22.4721 128.604 22.5727 128.314 22.7088C128.03 22.8449 127.811 23.0225 127.657 23.2415C127.509 23.4545 127.435 23.709 127.435 24.005C127.435 24.4548 127.595 24.7981 127.915 25.0348C128.24 25.2715 128.651 25.3899 129.149 25.3899ZM150.518 18.5273L146.531 18.6339C146.49 18.3498 146.378 18.0982 146.194 17.8793C146.011 17.6544 145.771 17.4798 145.475 17.3555C145.185 17.2253 144.848 17.1602 144.463 17.1602C143.96 17.1602 143.531 17.2608 143.176 17.462C142.826 17.6632 142.655 17.9355 142.661 18.2788C142.655 18.5451 142.761 18.7759 142.98 18.9712C143.205 19.1665 143.605 19.3234 144.179 19.4418L146.807 19.9389C148.168 20.1993 149.18 20.6314 149.843 21.2351C150.512 21.8388 150.849 22.6378 150.855 23.6321C150.849 24.5672 150.571 25.381 150.02 26.0735C149.476 26.766 148.73 27.3046 147.783 27.6893C146.836 28.0681 145.753 28.2575 144.534 28.2575C142.587 28.2575 141.051 27.858 139.926 27.0589C138.808 26.254 138.169 25.1768 138.009 23.8274L142.297 23.7209C142.391 24.218 142.637 24.5968 143.034 24.8572C143.43 25.1177 143.936 25.2479 144.552 25.2479C145.108 25.2479 145.561 25.1443 145.91 24.9371C146.259 24.73 146.437 24.4548 146.443 24.1115C146.437 23.8037 146.301 23.5581 146.034 23.3746C145.768 23.1853 145.351 23.0373 144.782 22.9308L142.403 22.478C141.036 22.2294 140.018 21.7707 139.349 21.1019C138.68 20.4272 138.349 19.569 138.355 18.5273C138.349 17.6159 138.592 16.8376 139.083 16.1925C139.574 15.5414 140.273 15.0443 141.178 14.701C142.084 14.3577 143.152 14.1861 144.383 14.1861C146.23 14.1861 147.686 14.5737 148.751 15.3491C149.816 16.1185 150.405 17.1779 150.518 18.5273ZM156.907 24.4222L156.925 19.2464H157.529L161.364 14.3636H166.282L160.583 21.3594H159.438L156.907 24.4222ZM152.992 28V9.81818H157.334V28H152.992ZM161.462 28L157.893 22.3359L160.752 19.2553L166.478 28H161.462Z" fill="#343C6A"/>
</svg>
